<svg id="SvgjsSvg1001" width="288" height="288" xmlns="http://www.w3.org/2000/svg" version="1.1" xmlns:xlink="http://www.w3.org/1999/xlink" xmlns:svgjs="http://svgjs.com/svgjs"><defs id="SvgjsDefs1002"></defs><g id="SvgjsG1008" transform="matrix(0.9167,0,0,0.9167,11.995197413200486,11.995222436400383)"><svg xmlns="http://www.w3.org/2000/svg" enable-background="new 0 0 512.004 512.004" viewBox="0 0 512.004 512.004" width="288" height="288"><path d="M136.535 230.403H68.269c-4.71 0-8.533 3.814-8.533 8.533v204.8c0 4.719 3.823 8.533 8.533 8.533h68.267c4.71 0 8.533-3.814 8.533-8.533v-204.8C145.069 234.218 141.246 230.403 136.535 230.403zM238.935 153.97h-68.267c-4.514 0-8.175 3.661-8.175 8.166v281.6c0 4.506 3.661 8.166 8.175 8.166h68.267c4.514 0 8.175-3.661 8.175-8.166v-281.6C247.11 157.631 243.45 153.97 238.935 153.97zM341.336 196.27h-68.267c-4.71 0-8.533 3.814-8.533 8.533v238.933c0 4.719 3.823 8.533 8.533 8.533h68.267c4.71 0 8.533-3.814 8.533-8.533V204.803C349.869 200.084 346.046 196.27 341.336 196.27zM443.735 110.937h-68.267c-4.71 0-8.533 3.814-8.533 8.533v324.267c0 4.719 3.823 8.533 8.533 8.533h68.267c4.71 0 8.533-3.814 8.533-8.533V119.47C452.269 114.751 448.446 110.937 443.735 110.937zM409.602 25.603h-51.2c-4.71 0-8.533 3.814-8.533 8.533s3.823 8.533 8.533 8.533h29.184l-81.826 66.961-97.673-40.704c-2.79-1.161-5.99-.759-8.405 1.05l-102.4 76.8c-3.772 2.825-4.531 8.175-1.707 11.938 1.672 2.244 4.241 3.422 6.835 3.422 1.775 0 3.575-.555 5.111-1.707l98.5-73.873 97.894 40.789c2.918 1.229 6.255.725 8.687-1.263l88.465-72.38v23.1c0 4.719 3.823 8.533 8.533 8.533s8.533-3.814 8.533-8.533V34.137C418.135 29.418 414.313 25.603 409.602 25.603z" fill="#ffffff" class="color000 svgShape"></path><path d="M509.502,471.837l-25.6-25.6c-3.337-3.337-8.73-3.337-12.066,0c-3.337,3.336-3.337,8.73,0,12.066l11.034,11.034H42.669
			V29.136L53.702,40.17c1.664,1.664,3.849,2.5,6.033,2.5s4.369-0.836,6.033-2.5c3.336-3.336,3.336-8.73,0-12.066l-25.6-25.6
			c-3.336-3.336-8.73-3.336-12.066,0l-25.6,25.6c-3.336,3.337-3.336,8.73,0,12.066c3.337,3.337,8.73,3.337,12.066,0l11.034-11.034
			V477.87c0,4.719,3.823,8.533,8.533,8.533h448.734l-11.034,11.034c-3.337,3.337-3.337,8.73,0,12.066
			c1.664,1.664,3.849,2.5,6.033,2.5c2.185,0,4.369-0.836,6.033-2.5l25.6-25.6C512.838,480.566,512.838,475.173,509.502,471.837z" fill="#ffffff" class="color000 svgShape"></path></svg></g></svg>